<svg id="Blue-_w_Letters" data-name="Blue-/w Letters" xmlns="http://www.w3.org/2000/svg" xmlns:xlink="http://www.w3.org/1999/xlink" viewBox="0 0 276.89 325.78"><defs><style>.cls-1{fill:url(#linear-gradient);}.cls-2{fill:url(#linear-gradient-2);}</style><linearGradient id="linear-gradient" x1="3.75" y1="134.77" x2="268.64" y2="134.77" gradientUnits="userSpaceOnUse"><stop offset="0" stop-color="#3fa9f5"/><stop offset="1" stop-color="#0063a6"/></linearGradient><linearGradient id="linear-gradient-2" x1="6.5" y1="296.02" x2="270.71" y2="296.02" xlink:href="#linear-gradient"/></defs><path class="cls-1" d="M157.67,135.08H82.76l56-111.48L174.08,93h88.38l-2-5.22A130.45,130.45,0,0,0,8.34,131.41a8.45,8.45,0,1,0,7.68,0A122.91,122.91,0,0,1,136,12.05L70.3,142.76h99.9L138.59,80.65l-8.28,16.47a8.45,8.45,0,1,0,8.51,8.45,8.33,8.33,0,0,0-1.65-5l1.46-2.9Zm93.44-49.76H178.79L141.5,12.05A123.64,123.64,0,0,1,251.11,85.32Zm22,36.67a8.45,8.45,0,1,0-11.75,7.78c.07,1.67.1,3.34.1,5a122,122,0,0,1-21.92,69.94L200,127a8.45,8.45,0,1,0-6.85,3.49l36.65,72h-29.2l-17.4-34.19H94.58L77.41,202.45H48.92l17.26-34.37-53.79-.32,1.52,5a131.46,131.46,0,0,0,46.44,66.3,129.31,129.31,0,0,0,78.38,26.17c71.93,0,130.44-58.52,130.44-130.45,0-1.84,0-3.69-.12-5.54A8.45,8.45,0,0,0,273.14,122ZM22.89,175.5l30.88.19L38.56,206A123.11,123.11,0,0,1,22.89,175.5Zm115.84,82a122.08,122.08,0,0,1-97.09-47.4h40.5l17.17-34.19h79.16l17.4,34.19h39.7A122.57,122.57,0,0,1,138.73,257.53Z"/><path class="cls-2" d="M17.07,310.63H34v8.62H6.5V272.74H17.07ZM75.75,296a27.67,27.67,0,0,1-1.48,9.19,22.75,22.75,0,0,1-4.2,7.4,19.18,19.18,0,0,1-6.51,4.93,21,21,0,0,1-16.92,0,19.3,19.3,0,0,1-6.54-4.93,22.59,22.59,0,0,1-4.21-7.4,29.12,29.12,0,0,1,0-18.39,22.39,22.39,0,0,1,4.21-7.38,19.37,19.37,0,0,1,6.54-4.91,19.77,19.77,0,0,1,8.47-1.78,19.28,19.28,0,0,1,15,6.72,22.65,22.65,0,0,1,4.2,7.38A27.64,27.64,0,0,1,75.75,296Zm-9.45,0a22.4,22.4,0,0,0-.76-6.09,13.46,13.46,0,0,0-2.2-4.58,9.66,9.66,0,0,0-3.51-2.88,10.83,10.83,0,0,0-4.72-1,11,11,0,0,0-4.77,1,9.61,9.61,0,0,0-3.52,2.88,13.46,13.46,0,0,0-2.2,4.58,24.55,24.55,0,0,0,0,12.2,13.37,13.37,0,0,0,2.2,4.58,9.49,9.49,0,0,0,3.52,2.87,11.14,11.14,0,0,0,4.77,1,11,11,0,0,0,4.72-1,9.54,9.54,0,0,0,3.51-2.87,13.37,13.37,0,0,0,2.2-4.58A22.45,22.45,0,0,0,66.3,296Zm30.8-23.26L73.75,319.31h8.61l4.2-8.38h20.85l4.2,8.38h8.84Zm-6.34,30.05,6.34-12.65,6.34,12.65Zm74.7-6.78a24.84,24.84,0,0,1-1.71,9.32,21.4,21.4,0,0,1-12.26,12.24,25.9,25.9,0,0,1-9.68,1.74h-17.7V272.74h17.7a25.71,25.71,0,0,1,9.68,1.76,21.91,21.91,0,0,1,7.46,4.86,21.38,21.38,0,0,1,4.8,7.37A24.71,24.71,0,0,1,165.46,296Zm-10.83,0a20.8,20.8,0,0,0-.87-6.23,13.4,13.4,0,0,0-2.52-4.72,10.83,10.83,0,0,0-4-3,13.42,13.42,0,0,0-5.41-1h-7.07V311h7.07a13.25,13.25,0,0,0,5.41-1,10.83,10.83,0,0,0,4-3,13.44,13.44,0,0,0,2.52-4.71A21,21,0,0,0,154.63,296Zm25.94,23.24H169.93V272.74h10.64ZM192,272.83a3.52,3.52,0,0,1,.85.24,3,3,0,0,1,.72.5,10.71,10.71,0,0,1,.78.86l21.64,27.93c-.08-.89-.14-1.76-.19-2.6s-.06-1.63-.06-2.38V272.77H225v46.51h-5.5a4.94,4.94,0,0,1-2.07-.38,4.48,4.48,0,0,1-1.62-1.4l-21.49-27.71q.09,1.21.15,2.37c.05.78.07,1.51.07,2.19v24.93h-9.32V272.77h5.56A9.35,9.35,0,0,1,192,272.83Zm61.81,38.35a17.9,17.9,0,0,0,3.87-.37,19.91,19.91,0,0,0,3.2-1v-6.92h-4.51a2.14,2.14,0,0,1-1.56-.53,1.75,1.75,0,0,1-.57-1.34V295.2H270.4v19.24a24.07,24.07,0,0,1-3.65,2.2,23.31,23.31,0,0,1-4,1.52,29.86,29.86,0,0,1-4.57.87,44.65,44.65,0,0,1-5.21.28,23.82,23.82,0,0,1-9.25-1.76,22.16,22.16,0,0,1-12.25-12.26,24,24,0,0,1-1.77-9.28,25.19,25.19,0,0,1,1.69-9.37,21.22,21.22,0,0,1,4.83-7.36,22,22,0,0,1,7.6-4.82,27.48,27.48,0,0,1,10-1.72,29.35,29.35,0,0,1,5.35.47,26.48,26.48,0,0,1,4.61,1.28,21.13,21.13,0,0,1,7,4.38l-3.07,4.66a3.4,3.4,0,0,1-1,1,2.51,2.51,0,0,1-1.33.38,3.62,3.62,0,0,1-1.94-.63c-.84-.5-1.62-.93-2.36-1.29a14.1,14.1,0,0,0-2.27-.9,16.72,16.72,0,0,0-2.44-.5,25.1,25.1,0,0,0-2.88-.15,13.3,13.3,0,0,0-5.35,1,11.6,11.6,0,0,0-4.05,3,13.55,13.55,0,0,0-2.58,4.58,18.64,18.64,0,0,0-.91,6,19.15,19.15,0,0,0,1,6.45,13.7,13.7,0,0,0,2.76,4.75,11.89,11.89,0,0,0,4.19,3A13.76,13.76,0,0,0,253.76,311.18Z"/></svg>