<svg id="Blue-_w_Letters" data-name="Blue-/w Letters" xmlns="http://www.w3.org/2000/svg" xmlns:xlink="http://www.w3.org/1999/xlink" viewBox="0 0 382.74 441.09"><defs><style>.cls-1{fill:url(#linear-gradient);}.cls-2{fill:url(#linear-gradient-2);}.cls-3{fill:url(#linear-gradient-3);}</style><linearGradient id="linear-gradient" x1="84.3" y1="35.19" x2="314.68" y2="245.32" gradientUnits="userSpaceOnUse"><stop offset="0" stop-color="#3fa9f5"/><stop offset="1" stop-color="#0063a6"/></linearGradient><linearGradient id="linear-gradient-2" x1="69.02" y1="228.81" x2="334.96" y2="471.37" xlink:href="#linear-gradient"/><linearGradient id="linear-gradient-3" x1="92.19" y1="316.46" x2="301.35" y2="507.22" xlink:href="#linear-gradient"/></defs><title>Logo-Stacked-Blue-Labeled</title><path class="cls-1" d="M211.94,134.65H137L193,23.17l35.33,69.4h88.37l-2-5.23A130.46,130.46,0,0,0,62.6,131a8.44,8.44,0,1,0,7.68,0A122.92,122.92,0,0,1,190.22,11.61L124.56,142.33h99.91L192.85,80.21l-8.28,16.48a8.46,8.46,0,1,0,6.86,3.44l1.46-2.89Zm93.43-49.77H233.05L195.76,11.61A123.65,123.65,0,0,1,305.37,84.88Zm22,36.68a8.45,8.45,0,1,0-11.76,7.78c.07,1.67.1,3.33.1,5a122,122,0,0,1-21.92,69.94l-39.58-77.76A8.45,8.45,0,1,0,247.4,130l36.66,72H254.85l-17.4-34.19H148.84L131.67,202H103.18l17.26-34.37-53.79-.32,1.52,5a131.56,131.56,0,0,0,46.44,66.3A130.46,130.46,0,0,0,323.43,134.34c0-1.84,0-3.69-.12-5.55A8.43,8.43,0,0,0,327.41,121.56ZM77.15,175.07l30.88.19L92.82,205.54A123.11,123.11,0,0,1,77.15,175.07ZM193,257.1A122.08,122.08,0,0,1,95.9,209.7h40.5l17.18-34.19h79.15l17.4,34.19h39.7A122.6,122.6,0,0,1,193,257.1Z"/><path class="cls-2" d="M60.24,267.11,4.41,378.48H25l10.05-20H84.88l10.05,20h21.14ZM44.6,339l15.17-30.26L74.93,339ZM189,361.28v17.2H122.1V285.34h17.19v75.94Zm48.17-75.7v17.24h-24.9v75.66H195V302.82h-24.9V285.58Zm71.13,0v61.05c.13,9.89-2.79,17.71-8.63,23.46s-13.84,9.08-23.95,8.63c-9.5-.43-17.51-3.25-23.62-8.79-6.28-5.69-9-12.85-8.93-22.62V285.58h17.23v61.18c.2,5.91,1.55,7.93,4.23,10.64s6.38,4.06,11.1,4.06c9.89,0,14.9-3.2,15.33-14.21V285.58Zm53.61,68.48c0-3.56-1.16-6.3-3.5-8.2s-7.84-3.92-13.9-6a86.26,86.26,0,0,1-14.41-6.26c-9.64-5.62-15.77-13.24-15.77-22.76a23.29,23.29,0,0,1,3.88-13.24,25.58,25.58,0,0,1,11.14-9.09c4.84-2.18,11.58-3.22,17.61-3.22a30.34,30.34,0,0,1,14.89,3.5,26.37,26.37,0,0,1,11.05,10,26.81,26.81,0,0,1,3.94,14.46H359.56a12.43,12.43,0,0,0-3.93-9.53q-3.67-3.48-10.32-3.49-6.4,0-10,2.93a9.49,9.49,0,0,0-3.56,7.7q0,4.47,4.17,7.49c2.78,2,8.19,3.95,13.59,5.71q14.93,4.85,21.75,12c4.55,4.79,8.13,10.74,8.13,17.87q0,11.88-8.34,18.65t-22.44,6.76a40.65,40.65,0,0,1-17.85-3.87,28.77,28.77,0,0,1-12.27-10.6,29.07,29.07,0,0,1-4.23-15.71h17.38c0,10.1,5.77,15.27,17,15.27q6.23,0,9.73-2.73A9.14,9.14,0,0,0,361.87,354.06Z"/><path class="cls-3" d="M45.85,417.61H41.17V394.93h4.68Zm29.87-18.89H68.78v18.89H64.11V398.72H57.25v-3.79H75.72ZM115,411.66a2.4,2.4,0,0,0-.94-2,11.8,11.8,0,0,0-3.36-1.5,23.57,23.57,0,0,1-3.85-1.55Q103,404.5,103,401a5.47,5.47,0,0,1,1-3.28,6.79,6.79,0,0,1,3-2.25,11.17,11.17,0,0,1,4.35-.81,10.15,10.15,0,0,1,4.33.88,6.88,6.88,0,0,1,3,2.48,6.53,6.53,0,0,1,1,3.65H115a3.06,3.06,0,0,0-1-2.42,4,4,0,0,0-2.76-.87,4.25,4.25,0,0,0-2.66.73,2.29,2.29,0,0,0-.95,1.9,2.2,2.2,0,0,0,1.11,1.86,12.85,12.85,0,0,0,3.28,1.4,14.17,14.17,0,0,1,5.81,3,5.92,5.92,0,0,1,1.82,4.43,5.44,5.44,0,0,1-2.22,4.61,9.75,9.75,0,0,1-6,1.68,11.53,11.53,0,0,1-4.76-1,7.5,7.5,0,0,1-3.28-2.62,6.68,6.68,0,0,1-1.13-3.87H107q0,3.76,4.48,3.76a4.37,4.37,0,0,0,2.6-.68A2.21,2.21,0,0,0,115,411.66Zm35.4-4.88a13.64,13.64,0,0,1-1.18,5.87,8.93,8.93,0,0,1-3.39,3.9,10,10,0,0,1-10.08,0,8.94,8.94,0,0,1-3.43-3.87,13.24,13.24,0,0,1-1.23-5.78v-1.12a13.55,13.55,0,0,1,1.21-5.9,9,9,0,0,1,3.41-3.91,10,10,0,0,1,10.07,0,9,9,0,0,1,3.42,3.91,13.66,13.66,0,0,1,1.2,5.88Zm-4.73-1a9.54,9.54,0,0,0-1.28-5.42,4.5,4.5,0,0,0-7.27,0,9.45,9.45,0,0,0-1.29,5.37v1.1a9.68,9.68,0,0,0,1.27,5.39,4.15,4.15,0,0,0,3.68,1.92,4.11,4.11,0,0,0,3.61-1.85,9.6,9.6,0,0,0,1.28-5.38Zm21.73,8.09h9.92v3.76H162.75V394.93h4.67Zm38.32-18.92v14.94a7.64,7.64,0,0,1-2.33,5.88,8.94,8.94,0,0,1-6.36,2.17,9.09,9.09,0,0,1-6.31-2.1,7.52,7.52,0,0,1-2.38-5.78V394.93H193v15a4.34,4.34,0,0,0,1.07,3.25,4.08,4.08,0,0,0,3,1c2.63,0,4-1.39,4-4.15V394.93Zm29.83,3.79h-6.95v18.89H224V398.72H217.1v-3.79h18.47Zm16.56,18.89h-4.67V394.93h4.67ZM284,406.78a13.79,13.79,0,0,1-1.18,5.87,8.93,8.93,0,0,1-3.39,3.9,10,10,0,0,1-10.09,0,9,9,0,0,1-3.42-3.87,13.24,13.24,0,0,1-1.23-5.78v-1.12a13.69,13.69,0,0,1,1.2-5.9,9,9,0,0,1,3.42-3.91,10,10,0,0,1,10.07,0,9,9,0,0,1,3.41,3.91,13.52,13.52,0,0,1,1.21,5.88Zm-4.73-1a9.54,9.54,0,0,0-1.28-5.42,4.51,4.51,0,0,0-7.28,0,9.45,9.45,0,0,0-1.29,5.37v1.1a9.67,9.67,0,0,0,1.28,5.39,4.47,4.47,0,0,0,7.29.07,9.68,9.68,0,0,0,1.28-5.38Zm35.5,11.85h-4.68L301,402.69v14.92h-4.67V394.93H301l9.11,14.95V394.93h4.66Zm24.76-5.95a2.4,2.4,0,0,0-.93-2,11.8,11.8,0,0,0-3.36-1.5,23.2,23.2,0,0,1-3.85-1.55c-2.58-1.39-3.86-3.26-3.86-5.62a5.47,5.47,0,0,1,1-3.28,6.73,6.73,0,0,1,3-2.25,11.17,11.17,0,0,1,4.35-.81,10.15,10.15,0,0,1,4.33.88,6.88,6.88,0,0,1,2.95,2.48,6.53,6.53,0,0,1,1.05,3.65h-4.67a3.06,3.06,0,0,0-1-2.42,4,4,0,0,0-2.76-.87,4.25,4.25,0,0,0-2.66.73,2.29,2.29,0,0,0-.95,1.9,2.2,2.2,0,0,0,1.11,1.86,12.69,12.69,0,0,0,3.28,1.4,14.17,14.17,0,0,1,5.81,3,6,6,0,0,1,1.82,4.43,5.44,5.44,0,0,1-2.22,4.61,9.75,9.75,0,0,1-6,1.68,11.58,11.58,0,0,1-4.77-1,7.53,7.53,0,0,1-3.27-2.62,6.68,6.68,0,0,1-1.13-3.87h4.68q0,3.76,4.49,3.76a4.37,4.37,0,0,0,2.6-.68A2.2,2.2,0,0,0,339.55,411.66Z"/></svg>